<svg width="20" height="26" viewBox="0 0 20 26" fill="none" xmlns="http://www.w3.org/2000/svg">
<path d="M2.87156 8.77708C2.75091 8.57981 2.67257 8.35963 2.6415 8.13049C2.61044 7.90135 2.62732 7.66825 2.69109 7.44598C2.73438 7.26143 2.80833 7.08545 2.90984 6.92536L5.24937 3.57849V0.876922C5.2491 0.756971 5.27351 0.638246 5.32106 0.528123C5.36861 0.417999 5.4383 0.318829 5.52579 0.236772C5.61329 0.154715 5.71672 0.0915233 5.82966 0.0511228C5.9426 0.0107222 6.06265 -0.00602457 6.18234 0.00192253C6.40772 0.0212759 6.61738 0.125391 6.76901 0.293262C6.92064 0.461134 7.00297 0.680267 6.99937 0.906454V3.54786L7.57359 4.26755C7.82355 4.58104 8.14225 4.83287 8.50505 5.00355C8.86785 5.17424 9.26505 5.25922 9.66593 5.25192C10.0618 5.24072 10.4504 5.14251 10.8041 4.96426C11.1577 4.78601 11.4678 4.53208 11.7123 4.22052L12.2494 3.54786V0.876922C12.2491 0.756971 12.2735 0.638246 12.3211 0.528123C12.3686 0.417999 12.4383 0.318829 12.5258 0.236772C12.6133 0.154715 12.7167 0.0915233 12.8297 0.0511228C12.9426 0.0107222 13.0626 -0.00602457 13.1823 0.00192253C13.4077 0.0212759 13.6174 0.125391 13.769 0.293262C13.9206 0.461134 14.003 0.680267 13.9994 0.906454V3.57849L16.3422 6.92536C16.4437 7.08545 16.5176 7.26143 16.5609 7.44598C16.6247 7.66825 16.6416 7.90135 16.6105 8.13049C16.5794 8.35963 16.5011 8.57981 16.3805 8.77708C16.3761 8.78343 16.3721 8.79 16.3684 8.79677L14.8525 11.1746C14.8127 11.237 14.7577 11.2883 14.6927 11.3237C14.6276 11.3591 14.5547 11.3774 14.4806 11.3769H4.76812C4.69463 11.3769 4.62234 11.3583 4.55792 11.3229C4.4935 11.2876 4.43902 11.2365 4.39952 11.1746L2.88359 8.79677C2.87993 8.79 2.87591 8.78343 2.87156 8.77708ZM19.1137 22.9477C19.1092 22.9349 19.1037 22.9225 19.0973 22.9105L14.6217 13.3785C14.5863 13.3031 14.5302 13.2394 14.4598 13.1949C14.3895 13.1503 14.3079 13.1267 14.2247 13.1269H5.02406C4.9408 13.1267 4.85922 13.1503 4.78889 13.1949C4.71856 13.2394 4.66241 13.3031 4.62702 13.3785L0.151399 22.9105C0.145015 22.9225 0.139532 22.9349 0.134993 22.9477C0.0396468 23.1778 -0.00612691 23.4254 0.000657651 23.6743C0.00744221 23.9233 0.0666323 24.168 0.174368 24.3925C0.318064 24.6879 0.541978 24.9368 0.820502 25.1109C1.09903 25.285 1.42092 25.3772 1.74937 25.3769H17.4994C17.8276 25.377 18.1493 25.2847 18.4276 25.1106C18.7059 24.9366 18.9297 24.6877 19.0733 24.3925C19.1812 24.1681 19.2406 23.9234 19.2475 23.6744C19.2545 23.4255 19.2089 23.1779 19.1137 22.9477Z" fill="#B3B3B3"/>
</svg>
