<svg width="23" height="27" viewBox="0 0 23 27" fill="none" xmlns="http://www.w3.org/2000/svg">
<path fill-rule="evenodd" clip-rule="evenodd" d="M0.683834 9.03286C0.25 9.97811 0.25 11.0532 0.25 13.2034V19.9167C0.25 22.9044 0.25 24.3975 1.17783 25.3238C2.01858 26.1661 3.32642 26.2421 5.79167 26.25V18.3334C5.79167 17.4935 6.1253 16.6881 6.71916 16.0942C7.31303 15.5003 8.11848 15.1667 8.95833 15.1667H13.7083C14.5482 15.1667 15.3536 15.5003 15.9475 16.0942C16.5414 16.6881 16.875 17.4935 16.875 18.3334V26.25C19.3403 26.2421 20.6481 26.1645 21.4888 25.3222C22.4167 24.3944 22.4167 22.9029 22.4167 19.9167V13.2034C22.4167 11.0532 22.4167 9.97811 21.9828 9.03286C21.5474 8.08761 20.732 7.38936 19.0996 5.98969L17.5163 4.63277C14.5633 2.10419 13.0908 0.837524 11.3333 0.837524C9.57583 0.837524 8.10175 2.10261 5.15042 4.63119L3.56708 5.98811C1.93625 7.38777 1.11925 8.08602 0.685417 9.03127M13.7083 26.25V18.3334H8.95833V26.25H13.7083Z" fill="#F99471"/>
</svg>
