<svg width="32" height="32" viewBox="0 0 32 32" fill="none" xmlns="http://www.w3.org/2000/svg">
<path d="M26.6667 4H5.33333C4.97971 4 4.64057 4.14048 4.39052 4.39052C4.14048 4.64057 4 4.97971 4 5.33333V8.30267L4.01067 8.6C4.07708 9.49029 4.43942 10.3328 5.04 10.9933L10.6667 17.1813V28C10.6666 28.2113 10.7168 28.4195 10.813 28.6076C10.9092 28.7957 11.0488 28.9582 11.2201 29.0818C11.3915 29.2054 11.5898 29.2864 11.7986 29.3184C12.0075 29.3503 12.2209 29.3321 12.4213 29.2653L20.4213 26.5987L20.5653 26.5413C20.795 26.4338 20.9892 26.2631 21.1252 26.0491C21.2612 25.8352 21.3334 25.5869 21.3333 25.3333V16.552L26.828 11.0587C27.1998 10.687 27.4946 10.2457 27.6958 9.75999C27.8969 9.27428 28.0002 8.75369 28 8.228V5.33333C28 4.97971 27.8595 4.64057 27.6095 4.39052C27.3594 4.14048 27.0203 4 26.6667 4Z" fill="#B3B3B3"/>
</svg>
